<?xml version="1.0" encoding="UTF-8"?>
<!DOCTYPE svg PUBLIC "-//W3C//DTD SVG 1.1//EN" "http://www.w3.org/Graphics/SVG/1.1/DTD/svg11.dtd">
<!-- Creator: CorelDRAW (Evaluation Version) -->
<svg xmlns="http://www.w3.org/2000/svg" xml:space="preserve" width="32px" height="32px" version="1.1" style="shape-rendering:geometricPrecision; text-rendering:geometricPrecision; image-rendering:optimizeQuality; fill-rule:evenodd; clip-rule:evenodd"
viewBox="0 0 32 32"
 xmlns:xlink="http://www.w3.org/1999/xlink"
 xmlns:xodm="http://www.corel.com/coreldraw/odm/2003">
 <defs>
  <style type="text/css">
   <![CDATA[
    .fil1 {fill:#B53432;fill-rule:nonzero}
    .fil0 {fill:#E2413E;fill-rule:nonzero}
    .fil2 {fill:white;fill-rule:nonzero}
   ]]>
  </style>
 </defs>
 <g id="Layer_x0020_1">
  <metadata id="CorelCorpID_0Corel-Layer"/>
  <path class="fil0" d="M15.75 0.04c-8.83,0 -16,7.16 -16,16 0,8.84 7.17,16 16,16 8.84,0 16,-7.16 16,-16 0,-8.84 -7.16,-16 -16,-16z"/>
  <path class="fil1" d="M19.49 31.6c-2.37,-2.37 -4.64,-4.64 -5.58,-5.58 -1.09,-1.1 -2.2,-2.17 -3.27,-3.29 -0.47,-0.49 -1.23,-1.04 -1.55,-1.65 -0.3,-0.56 -0.34,-1.49 -0.48,-2.12 -0.18,-0.81 -0.41,-1.08 0.06,-1.65 0.48,-0.59 1.33,-0.95 1.91,-1.45 0.3,-0.26 1.28,-1.02 1.26,-1.34 0,-0.08 -0.33,-0.29 -0.39,-0.37 -0.2,-0.26 -1.77,-1.77 -2.29,-2.29 -0.15,-0.15 -0.75,-0.59 -0.78,-0.78 -0.09,-0.48 0.73,-0.85 0.58,-1.31 -0.04,-0.11 -0.29,-0.26 -0.37,-0.35 -0.45,-0.5 -0.81,-0.55 -0.11,-0.91 0.49,-0.26 0.78,-0.09 0.91,-0.53 0.07,-0.28 -0.41,-0.95 -0.26,-1.19 0.05,-0.08 0.12,-0.11 0.2,-0.11 0.17,0 0.4,0.12 0.62,0.24 0.22,0.12 0.44,0.25 0.61,0.25 0.03,0 0.06,-0.01 0.09,-0.02 0.51,-0.2 0.27,-1.18 0.78,-1.18 0.04,0 0.09,0.01 0.13,0.02 0.11,0.03 0.3,0.29 0.38,0.37 0.37,0.36 0.44,0.53 0.83,0.53 0.05,0 0.12,0 0.19,-0.01 0.38,-0.04 0.47,-0.12 0.58,-0.12 0.08,0 0.16,0.04 0.36,0.17 0.13,0.08 0.25,0.26 0.36,0.37 0.25,0.25 0.5,0.49 0.75,0.74 0.33,0.32 8.51,8.59 15.04,15.19 -2.09,4.15 -5.94,7.26 -10.56,8.37z"/>
  <path class="fil2" d="M22.43 20.67l-0.34 -0.65 1.13 -0.16 -0.1 -0.72 -1.39 0.19 -0.31 -0.59 -1.95 0.6 -1.19 -0.48 -0.36 -0.3 0.94 -0.51 1.31 0 1.38 0.41 0.21 -0.7 -0.92 -0.27 0.34 -0.42 -0.56 -0.46 -0.58 0.71 -1.36 0 -1.36 0.73 -0.19 -0.16 0.25 -1.16 0.86 -0.32 0.91 0.23 0.18 -0.71 -0.75 -0.19 0 -0.73 1.37 0.27 2.83 2.22 0.92 2.76 -0.48 0.7 -0.79 -0.29zm-0.27 1.83l-1.24 -0.35 -2.7 1.01 -1.63 -0.6 -3.02 0.61 -1.99 -0.92 -1.24 -1.3 0.67 -0.26 1.01 0 0 0.91 0.73 0 0 -1.04 0.99 -0.46 1.23 0 0.41 0.85 -0.5 0.81 0.63 0.37 0.7 -1.14 -0.6 -1.23 0.46 -0.72 0.66 -0.54 1.17 0.99 0.16 0.07 -0.18 1.43 -0.79 0.27 0.24 0.69 0.84 -0.28 0.09 0.06 -0.37 0.73 0.65 0.33 0.66 -1.31 -0.59 -0.39 0.15 -1.24 0.68 0.27 1.62 -0.5 0.86 1.64 0.87 0.32 -0.63 0.92zm-12.73 -4.5l1.78 -1.35 0.29 -0.28 0.7 0.71 0.82 0.19 -0.25 0.63 0.68 0.26 0.28 -0.72 0.33 0.08 1.53 0.97 -0.07 0.06 -0.52 0.82 -1.42 0 -1.27 0.59 -1.44 0 -0.92 0.35 -0.52 -2.31zm3.12 -2.66l2.72 0.39 2 -0.97 0.58 0.11 0 0.91 -1.1 0.4 -0.35 1.65 -0.22 0.18 -0.57 -0.37 0.24 -0.9 -0.71 -0.18 -0.17 0.67 -0.62 -0.39 -1.78 -0.42 -0.55 -0.57 0.53 -0.51zm11.01 1.61l-3.22 -2.53 -3.19 -0.61 -2.03 0.98 -2.89 -0.42 -1.59 1.57 -2.22 1.68 0.77 3.44 1.85 1.94 2.42 1.12 3.06 -0.62 1.7 0.63 2.74 -1.02 1.58 0.45 2.17 -3.16 -1.15 -3.45z"/>
  <path class="fil2" d="M11.4 7.5c0.95,0 1.73,0.78 1.73,1.73 0,0.96 -0.78,1.73 -1.73,1.73 -0.96,0 -1.73,-0.77 -1.73,-1.73 0,-0.95 0.77,-1.73 1.73,-1.73zm-2.1 2.2l-0.84 1.33 1.57 -0.07 0.21 1.56 1.16 -1.06 1.15 1.06 0.21 -1.56 1.57 0.07 -0.84 -1.33 1.24 -0.95 -1.49 -0.48 0.33 -1.53 -1.45 0.59 -0.72 -1.38 -0.73 1.38 -1.45 -0.59 0.33 1.53 -1.49 0.48 1.24 0.95z"/>
 </g>
</svg>
