<?xml version="1.0" encoding="UTF-8"?>
<!DOCTYPE svg PUBLIC "-//W3C//DTD SVG 1.1//EN" "http://www.w3.org/Graphics/SVG/1.1/DTD/svg11.dtd">
<!-- Creator: CorelDRAW (Evaluation Version) -->
<svg xmlns="http://www.w3.org/2000/svg" xml:space="preserve" width="32px" height="32px" version="1.1" style="shape-rendering:geometricPrecision; text-rendering:geometricPrecision; image-rendering:optimizeQuality; fill-rule:evenodd; clip-rule:evenodd"
viewBox="0 0 32 32"
 xmlns:xlink="http://www.w3.org/1999/xlink"
 xmlns:xodm="http://www.corel.com/coreldraw/odm/2003">
 <defs>
  <style type="text/css">
   <![CDATA[
    .fil1 {fill:#384847;fill-rule:nonzero}
    .fil0 {fill:#465A59;fill-rule:nonzero}
    .fil2 {fill:white;fill-rule:nonzero}
   ]]>
  </style>
 </defs>
 <g id="Layer_x0020_1">
  <metadata id="CorelCorpID_0Corel-Layer"/>
  <path class="fil0" d="M16.11 -0.1c-8.83,0 -16,7.16 -16,16 0,8.84 7.17,16 16,16 8.84,0 16,-7.16 16,-16 0,-8.84 -7.16,-16 -16,-16z"/>
  <path class="fil1" d="M20.42 23.7c-3.09,-1.53 -6.62,-3.29 -7.04,-3.62 -0.44,-0.33 -4.72,-2.58 -5.66,-3.07 -0.34,-0.18 -0.77,-0.41 -0.49,-0.7 0.13,-0.13 0.44,-0.17 0.82,-0.17 0.2,0 0.42,0.01 0.63,0.02 0.21,0.01 0.42,0.02 0.61,0.02 0.1,0 0.2,0 0.28,-0.01 0.73,-0.07 0.64,-0.22 0.92,-0.62 0.35,-0.49 0.58,-1.16 1.14,-1.59 0.14,-0.12 0.2,-0.17 0.27,-0.17 0.09,0 0.18,0.07 0.42,0.18 0.25,0.11 0.48,0.24 0.72,0.36 0.38,0.2 0.9,0.59 1.38,0.7 0.13,-0.29 0.2,-0.41 0.35,-0.41 0.11,0 0.27,0.07 0.53,0.2 0.22,0.11 0.43,0.22 0.65,0.33 0.37,-0.97 0.74,-1.95 1.11,-2.93 0.09,-0.23 0.03,-0.4 0.28,-0.4 0.05,0 0.11,0.01 0.18,0.02 0.14,0.03 7.43,3.77 13.56,6.93 -1.79,2.39 -5.75,4.24 -10.66,4.93z"/>
  <polygon class="fil2" points="22.8,16.22 20.76,13.88 19.31,16.83 17.32,11.81 15.78,15.87 14.72,14.6 13.38,17.55 11.85,13.79 10.12,16.22 7.33,16.22 7.33,16.74 10.84,16.74 11.58,15.71 13.33,19.99 15.01,16.29 16.15,17.65 17.34,14.51 19.19,19.19 21.03,15.48 22.14,16.74 25.76,16.74 25.76,16.22 "/>
 </g>
</svg>
