<?xml version="1.0" encoding="UTF-8"?>
<!DOCTYPE svg PUBLIC "-//W3C//DTD SVG 1.1//EN" "http://www.w3.org/Graphics/SVG/1.1/DTD/svg11.dtd">
<!-- Creator: CorelDRAW (Evaluation Version) -->
<svg xmlns="http://www.w3.org/2000/svg" xml:space="preserve" width="32px" height="32px" version="1.1" style="shape-rendering:geometricPrecision; text-rendering:geometricPrecision; image-rendering:optimizeQuality; fill-rule:evenodd; clip-rule:evenodd"
viewBox="0 0 32 32"
 xmlns:xlink="http://www.w3.org/1999/xlink"
 xmlns:xodm="http://www.corel.com/coreldraw/odm/2003">
 <defs>
  <style type="text/css">
   <![CDATA[
    .fil1 {fill:#BA6526;fill-rule:nonzero}
    .fil0 {fill:#E87E30;fill-rule:nonzero}
    .fil2 {fill:white;fill-rule:nonzero}
   ]]>
  </style>
 </defs>
 <g id="Layer_x0020_1">
  <metadata id="CorelCorpID_0Corel-Layer"/>
  <path class="fil0" d="M15.9 -0.01c-8.83,0 -16,7.16 -16,16 0,8.84 7.17,16 16,16 8.84,0 16,-7.16 16,-16 0,-8.84 -7.16,-16 -16,-16z"/>
  <path class="fil1" d="M19.27 31.63c-2.05,-2.04 -4.71,-4.7 -5.6,-5.59 -0.66,-0.66 -1.32,-1.32 -1.98,-1.98 -1.29,-1.29 -2.13,-2.78 -2.21,-4.67 -0.07,-1.61 0.16,-3.62 -0.62,-5.09 -0.25,-0.46 -0.74,-1.08 0.17,-1.17 0.03,0 0.05,0 0.08,0 0.73,0 1.84,0.88 2.33,1.28 0.08,-0.79 0.4,-1.22 0.32,-2.04 -0.05,-0.54 -0.67,-1.91 0.02,-2.2 0.07,-0.03 0.15,-0.05 0.22,-0.05 0.69,0 1.6,1.09 2,1.49 0.09,-0.51 0.22,-1.08 0.51,-1.52 0.16,-0.23 0.45,-0.41 0.56,-0.65 0.35,-0.76 0.03,-1.92 -0.25,-2.64 -0.11,-0.29 -0.37,-0.57 -0.46,-0.83 -0.19,-0.59 -0.04,-0.85 0.29,-0.85 0.16,0 0.36,0.06 0.58,0.17 0.82,0.44 1.62,1.53 2.31,2.22 0.65,0.66 8.16,8.04 13.59,13.39 -1.74,5.39 -6.25,9.53 -11.86,10.73z"/>
  <path class="fil2" d="M21.96 19.02c0,0.28 -0.19,1.56 -1.09,2.79 -1.1,1.5 -2.78,2.28 -5.01,2.31l-0.12 0c-1.7,0 -3.01,-0.48 -3.9,-1.42 -1.15,-1.21 -1.32,-2.96 -1.29,-3.53 0,-0.04 0.03,-2.59 -0.42,-4.37 0.65,0.39 1.28,0.9 1.39,1.43 0.06,0.28 0.33,0.46 0.61,0.41 0.29,-0.05 0.48,-0.31 0.44,-0.6 -0.11,-0.79 -0.12,-1.84 0.06,-2.09 0.3,-0.42 0.27,-1.26 0.15,-2.04 0.51,0.47 0.99,1.07 1.07,1.7 0.03,0.28 0.28,0.49 0.56,0.47 0.28,-0.02 0.5,-0.25 0.5,-0.54 -0.01,-1.04 0.2,-2.76 0.7,-3.12 0.41,-0.29 0.63,-0.82 0.65,-1.58 0.01,-0.34 -0.03,-0.74 -0.1,-1.15 1.32,1.51 2.86,3.93 2.58,6.77 -0.02,0.25 0.14,0.49 0.39,0.56 0.25,0.07 0.51,-0.05 0.62,-0.28 0.23,-0.45 0.74,-1.26 1.28,-1.68 -0.17,0.74 -0.32,1.66 -0.16,2.18l0.05 0.15c0.27,0.83 0.43,1.51 -0.11,1.96 -0.22,0.19 -0.26,0.52 -0.08,0.74 0.18,0.23 0.51,0.27 0.74,0.1 0.27,-0.21 0.66,-0.46 1.07,-0.67 -0.32,0.49 -0.58,1.05 -0.58,1.5zm2.42 -2.53c-0.06,-0.18 -0.2,-0.31 -0.39,-0.36 -0.11,-0.03 -0.23,-0.04 -0.36,-0.04 -0.45,0 -0.95,0.17 -1.4,0.39 -0.01,-0.54 -0.18,-1.06 -0.3,-1.42l-0.04 -0.14c-0.11,-0.35 0.13,-1.58 0.42,-2.51 0.05,-0.15 0.02,-0.32 -0.06,-0.45 -0.09,-0.14 -0.23,-0.22 -0.39,-0.24 -0.81,-0.09 -1.54,0.46 -2.08,1.07 -0.21,-1.68 -0.95,-3.39 -2.17,-5.01 -1.23,-1.63 -2.52,-2.59 -2.57,-2.64 -0.23,-0.17 -0.56,-0.12 -0.74,0.1 -0.18,0.23 -0.14,0.56 0.09,0.75 0.28,0.23 0.83,1.68 0.8,2.82 -0.01,0.45 -0.12,0.69 -0.21,0.75 -0.55,0.4 -0.84,1.25 -0.99,2.07 -0.75,-0.87 -1.7,-1.42 -1.76,-1.45 -0.19,-0.11 -0.42,-0.09 -0.59,0.04 -0.17,0.13 -0.25,0.35 -0.19,0.56 0.29,1.09 0.44,2.31 0.31,2.56 -0.19,0.26 -0.28,0.65 -0.32,1.07 -0.92,-0.75 -2.08,-1.19 -2.28,-1.27 -0.26,-0.09 -0.57,0.03 -0.68,0.29 -0.11,0.27 0,0.57 0.26,0.69 0,0 0.36,0.3 0.6,2.33 0.14,1.2 0.16,2.37 0.14,2.66 -0.01,0.1 -0.11,2.53 1.59,4.33 1.1,1.16 2.67,1.75 4.67,1.75 0.04,0 0.09,-0.01 0.14,-0.01 5.87,-0.08 7.14,-4.95 7.14,-6.16 0,-0.39 0.65,-1.35 1.24,-2.01 0.13,-0.14 0.17,-0.34 0.12,-0.52z"/>
  <path class="fil2" d="M17.78 19.19c0.74,-2.63 -2.54,-4.37 -2.54,-4.37 0.27,0.46 0.68,1.19 0.57,1.74 -0.16,0.79 -1.02,1.51 -0.76,2.41 -0.3,-1.05 -1.55,-1.24 -1.55,-1.24 0.8,0.85 0.03,1.99 0.05,2.86 0.03,0.87 0.51,2.83 2.44,2.65 0.96,-0.08 1.87,-0.61 2.4,-1.4 0.56,-0.83 0.32,-1.81 0.63,-2.72 0.13,-0.39 0.28,-0.77 0.45,-1.15 -1.06,0.26 -1.69,1.22 -1.69,1.22z"/>
 </g>
</svg>
