<?xml version="1.0" encoding="UTF-8"?>
<!DOCTYPE svg PUBLIC "-//W3C//DTD SVG 1.1//EN" "http://www.w3.org/Graphics/SVG/1.1/DTD/svg11.dtd">
<!-- Creator: CorelDRAW (Evaluation Version) -->
<svg xmlns="http://www.w3.org/2000/svg" xml:space="preserve" width="32px" height="32px" version="1.1" style="shape-rendering:geometricPrecision; text-rendering:geometricPrecision; image-rendering:optimizeQuality; fill-rule:evenodd; clip-rule:evenodd"
viewBox="0 0 32 32"
 xmlns:xlink="http://www.w3.org/1999/xlink"
 xmlns:xodm="http://www.corel.com/coreldraw/odm/2003">
 <defs>
  <style type="text/css">
   <![CDATA[
    .fil2 {fill:#2E9099;fill-rule:nonzero}
    .fil0 {fill:#39B4BF;fill-rule:nonzero}
    .fil1 {fill:#F4DBD9;fill-rule:nonzero}
    .fil3 {fill:white;fill-rule:nonzero}
   ]]>
  </style>
 </defs>
 <g id="Layer_x0020_1">
  <metadata id="CorelCorpID_0Corel-Layer"/>
  <path class="fil0" d="M15.76 -0.22c-8.84,0 -16,7.16 -16,16 0,8.84 7.16,16 16,16 8.84,0 16,-7.16 16,-16 0,-8.84 -7.16,-16 -16,-16z"/>
  <path class="fil1" d="M15.76 31.78l0 0 0 0c0.01,0 0.02,0 0.03,0 -0.01,0 -0.02,0 -0.03,0zm0.03 0c0.01,0 0.01,0 0.02,0 -0.01,0 -0.01,0 -0.02,0zm0.03 0c0,0 0.01,0 0.01,0 0,0 -0.01,0 -0.01,0zm0.02 0c0.01,0 0.01,0 0.02,0 -0.01,0 -0.01,0 -0.02,0zm0.03 0c0,0 0.01,0 0.01,0 0,0 -0.01,0 -0.01,0zm0.02 0c0.01,0 0.01,0 0.02,0 -0.01,0 -0.01,0 -0.02,0zm0.03 0c0.01,0 0.01,0 0.02,0 -0.01,0 -0.01,0 -0.02,0zm0.02 0c0.01,0 0.02,0 0.03,0 -0.01,0 -0.02,0 -0.03,0zm0.03 0c0.01,0 0.02,0 0.02,0 0,0 -0.01,0 -0.02,0zm0.03 0c0.01,0 0.01,0 0.02,0 -0.01,0 -0.01,0 -0.02,0zm0.03 0c0,0 0.01,0 0.01,0 0,0 -0.01,0 -0.01,0zm0.02 0c0.01,0 0.01,0 0.01,0 0,0 -0.01,0 -0.01,0zm0.02 0c0.01,0 0.01,0 0.02,0 -0.01,0 -0.01,0 -0.02,0zm0.03 0c0,0 0.01,0 0.01,0 0,0 -0.01,0 -0.01,0zm0.02 0c0.01,0 0.02,0 0.03,0 -0.01,0 -0.02,0 -0.03,0zm0.04 0c0,0 0.01,0 0.01,0 0,0 -0.01,0 -0.01,0zm0.02 -0.01c0.01,0 0.01,0 0.02,0 -0.01,0 -0.01,0 -0.02,0zm0.03 0c0,0 0.01,0 0.01,0 0,0 -0.01,0 -0.01,0zm0.02 0c0.01,0 0.01,0 0.01,0 0,0 0,0 -0.01,0zm0.03 0c0,0 0,0 0.01,0 -0.01,0 -0.01,0 -0.01,0zm0.02 0c0,0 0.01,0 0.01,0 0,0 -0.01,0 -0.01,0zm0.02 0c0.01,0 0.01,0 0.01,0 0,0 0,0 -0.01,0zm0.05 0c0,0 0,0 0,0 0,0 0,0 0,0zm0.02 0c0,0 0,0 0,0 0,0 0,0 0,0zm0.02 0c0,0 0.01,0 0.01,0 0,0 -0.01,0 -0.01,0zm0.02 0c0.01,0 0.01,0 0.01,0 0,0 0,0 -0.01,0zm0.03 0c0,0 0,0 0.01,0 -0.01,0 -0.01,0 -0.01,0zm0.02 0c0,0 0.01,0 0.01,0 0,0 -0.01,0 -0.01,0zm0.11 -0.01c0.01,0 0.01,0 0.01,0 0,0 0,0 -0.01,0zm0.03 0c0,0 0,0 0,0 0,0 0,0 0,0zm0.02 0l0 0 0 0z"/>
  <path class="fil2" d="M15.76 31.78l0 0c-0.24,0 -0.48,-0.01 -0.72,-0.02 -3,-2.99 -6.08,-6.07 -6.82,-6.81 -0.37,-0.36 -0.74,-0.72 -1.09,-1.1 -0.56,-0.61 -0.32,-0.3 0.08,-1.17 0.23,-0.47 0.19,-0.35 -0.22,-0.76 -0.36,-0.36 -0.73,-0.72 -1.09,-1.08 -0.12,-0.12 -0.49,-0.38 -0.54,-0.55 -0.19,-0.62 1.04,-1.42 1.59,-1.79 1.02,-0.69 2.2,-1.08 3.42,-1.22 -0.16,-0.36 -0.5,-0.73 -0.75,-1.05 -0.34,-0.42 -0.79,-0.77 -1.17,-1.16 -0.45,-0.46 -0.93,-0.93 -1.32,-1.45 -0.4,-0.51 -0.48,-0.38 -0.24,-0.83 0.19,-0.36 0.84,-0.74 1.15,-1.02 1.32,-1.17 2.64,-2.34 3.95,-3.5 0.49,-0.43 1.13,-1.28 1.76,-1.34 0.02,0 0.04,0 0.05,0 0.43,0 1.17,0.41 1.54,0.53 0.74,0.25 1.48,0.5 2.22,0.74 1.43,0.48 3.01,0.83 4.37,1.46 0.63,0.29 5.61,5.27 9.53,9.23 -1.4,7.07 -7.45,12.48 -14.84,12.87l0 0c-0.01,0 -0.01,0 -0.02,0 0,0 0,0 0,0 -0.01,0 -0.02,0 -0.02,0 0,0 0,0 -0.01,0 -0.03,0 -0.07,0 -0.1,0.01 0,0 -0.01,0 -0.01,0 0,0 -0.01,0 -0.01,0 -0.01,0 -0.01,0 -0.01,0 -0.01,0 -0.01,0 -0.02,0 0,0 0,0 -0.01,0 0,0 -0.01,0 -0.01,0 0,0 -0.01,0 -0.01,0 0,0 -0.01,0 -0.02,0 0,0 0,0 0,0 -0.01,0 -0.01,0 -0.02,0 0,0 0,0 0,0 -0.01,0 -0.03,0 -0.04,0 0,0 0,0 -0.01,0 0,0 0,0 -0.01,0 0,0 -0.01,0 -0.01,0 0,0 -0.01,0 -0.01,0 -0.01,0 -0.01,0 -0.01,0 -0.01,0 -0.01,0 -0.02,0 0,0 0,0 -0.01,0 0,0 -0.01,0 -0.01,0 0,0 -0.01,0 -0.01,0 -0.01,0 -0.01,0 -0.01,0 -0.01,0 -0.01,0 -0.02,0 0,0 0,0 -0.01,0.01 0,0 -0.01,0 -0.01,0 -0.01,0 -0.01,0 -0.01,0 -0.01,0 -0.02,0 -0.03,0 0,0 0,0 -0.01,0 0,0 -0.01,0 -0.01,0 0,0 -0.01,0 -0.01,0 -0.01,0 -0.01,0 -0.02,0 0,0 0,0 -0.01,0 0,0 0,0 -0.01,0 0,0 -0.01,0 -0.01,0 0,0 -0.01,0 -0.01,0 -0.01,0 -0.01,0 -0.01,0 -0.01,0 -0.01,0 -0.02,0 0,0 -0.01,0 -0.01,0 0,0 -0.01,0 -0.02,0 0,0 0,0 0,0 -0.01,0 -0.02,0 -0.03,0 0,0 0,0 0,0 -0.01,0 -0.01,0 -0.02,0 -0.01,0 -0.01,0 -0.01,0 -0.01,0 -0.01,0 -0.02,0 0,0 0,0 -0.01,0 0,0 -0.01,0 -0.01,0 0,0 -0.01,0 -0.01,0 -0.01,0 -0.01,0 -0.02,0 0,0 0,0 -0.01,0 0,0 -0.01,0 -0.01,0 0,0 -0.01,0 -0.01,0 -0.01,0 -0.01,0 -0.02,0 0,0 0,0 0,0 -0.01,0 -0.02,0 -0.03,0z"/>
  <path class="fil3" d="M13.86 16.91c0.74,0.08 1.49,0.19 2.22,0.3 0.46,0.06 0.93,0.13 1.4,0.19l-0.42 -2.04 -3.37 0.69 0.17 0.86z"/>
  <path class="fil3" d="M9.42 13.54l0.68 3.35c0.29,-0.04 0.59,-0.07 0.89,-0.09l-0.8 -3.94 3.9 -3.45 4.94 1.64 1.34 6.58c0.04,0 0.09,0.01 0.13,0.01 0.26,0 0.52,-0.01 0.78,-0.03l-1.28 -6.23 1.58 0.53 0.68 -2.03 -8.67 -2.89 -6.84 6.06 1.42 1.6 1.25 -1.11z"/>
  <path class="fil3" d="M25.58 16.9c-6.61,3.95 -14.91,-3.18 -20.25,3.22 6.85,-3.87 14.59,3.9 20.25,-3.22z"/>
  <path class="fil3" d="M6.75 23.34c6.86,-3.87 14.59,3.9 20.26,-3.22 -6.61,3.95 -14.91,-3.19 -20.26,3.22z"/>
 </g>
</svg>
