<?xml version="1.0" encoding="UTF-8"?>
<!DOCTYPE svg PUBLIC "-//W3C//DTD SVG 1.1//EN" "http://www.w3.org/Graphics/SVG/1.1/DTD/svg11.dtd">
<!-- Creator: CorelDRAW (Evaluation Version) -->
<svg xmlns="http://www.w3.org/2000/svg" xml:space="preserve" width="32mm" height="32mm" version="1.1" style="shape-rendering:geometricPrecision; text-rendering:geometricPrecision; image-rendering:optimizeQuality; fill-rule:evenodd; clip-rule:evenodd"
viewBox="0 0 3200 3200"
 xmlns:xlink="http://www.w3.org/1999/xlink"
 xmlns:xodm="http://www.corel.com/coreldraw/odm/2003">
 <defs>
  <style type="text/css">
   <![CDATA[
    .fil2 {fill:#22927E;fill-rule:nonzero}
    .fil1 {fill:#2AB69D;fill-rule:nonzero}
    .fil0 {fill:white;fill-rule:nonzero}
   ]]>
  </style>
 </defs>
 <g id="Layer_x0020_1">
  <metadata id="CorelCorpID_0Corel-Layer"/>
  <polygon class="fil0" points="5481.06,1042.5 5300.08,1103.58 5134.42,1007.91 5300.08,912.25 5481.06,973.33 5500.63,915.17 5370.84,871.41 5446.57,827.7 5415.88,774.57 5340.2,818.28 5367.15,683.98 5307.05,671.93 5269.44,859.16 5103.73,954.78 5103.73,763.5 5247.1,637.3 5206.57,591.28 5103.73,681.77 5103.73,594.36 5042.4,594.36 5042.4,681.77 4939.61,591.28 4899.08,637.3 5042.4,763.5 5042.4,954.78 4876.74,859.16 4839.13,671.93 4778.97,683.98 4805.98,818.28 4730.24,774.57 4699.6,827.7 4775.28,871.41 4645.49,915.17 4665.12,973.33 4846.05,912.25 5011.75,1007.91 4846.05,1103.58 4665.12,1042.5 4645.49,1100.66 4775.28,1144.42 4699.6,1188.12 4730.24,1241.26 4805.98,1197.55 4778.97,1331.85 4839.13,1343.89 4876.74,1156.71 5042.4,1061.05 5042.4,1252.38 4899.08,1378.53 4939.61,1424.54 5042.4,1334.05 5042.4,1421.47 5103.73,1421.47 5103.73,1334.05 5206.57,1424.54 5247.1,1378.53 5103.73,1252.38 5103.73,1061.05 5269.44,1156.71 5307.05,1343.89 5367.15,1331.85 5340.2,1197.55 5415.88,1241.26 5446.57,1188.12 5370.84,1144.42 5500.63,1100.66 "/>
  <path class="fil1" d="M1615.12 0.43c-883.56,0 -1599.94,716.38 -1599.94,1600.05 0,883.66 716.38,1599.94 1599.94,1599.94 883.67,0 1600.05,-716.28 1600.05,-1599.94 0,-883.67 -716.38,-1600.05 -1600.05,-1600.05z"/>
  <path class="fil2" d="M1967.4 3161.06c-373.32,-371.3 -844.71,-841.16 -880.94,-883.36 -46.95,-54.86 -21.65,-96.85 -69.92,-151.9 -37.75,-43.11 -184.69,-173.76 -92.9,-202.81 -32.59,-43.21 -100.6,-77.01 -124.18,-125.18 -13.25,-27.12 -13.05,-128.01 26.01,-145.01 3.55,-1.62 8.1,-2.33 13.16,-2.33 42.1,0 129.43,47.36 160.4,57.78 -40.89,-34.3 -77.32,-77.82 -115.06,-115.57 -18.12,-18.01 -44.73,-37.34 -58.5,-58.49 -101.09,-154.22 31.78,-156.75 157.06,-199.06 -12.24,-28.13 -56.26,-42.4 -70.23,-70.23 -19.83,-39.46 -28.84,-60.01 19.63,-106.26 26.42,-25.19 15.79,-27.12 26.31,-27.12 1.02,0 2.13,0 3.45,0 1.31,0 2.93,0 4.65,0 2.83,0 6.17,0 10.22,-0.1 0.31,0 0.61,-0.1 0.81,-0.1 29.75,0 88.04,51.31 116.38,67.7 -10.22,-51 -63.55,-182.76 -46.14,-229.82 9.81,-26.51 58.59,-52.22 100.79,-52.22 8.09,0 15.89,0.91 23.17,3.04 44.22,12.34 298.34,326.77 393.36,387.39 0,-105.15 13.05,-146.14 -55.25,-214.14 -49.59,-49.28 -98.98,-98.57 -148.36,-148.05 -15.38,-15.49 -67.2,-51.82 -71.75,-72.36 -8.4,-37.44 56.16,-104.34 92.19,-104.34 1.22,0 2.33,0.11 3.44,0.21 49.29,6.57 140.37,123.56 179.73,158.27 0,-85.41 -28.94,-162.02 59,-162.02 7.29,0 15.48,0.51 24.59,1.62 67.09,8.3 56.97,30.46 109.7,59.2 12.04,6.48 19.94,26.92 31.98,27.33 0.2,0.1 0.4,0.1 0.61,0.1 32.48,0 64.56,-84.5 97.35,-86.22 1.52,-0.1 2.93,-0.1 4.25,-0.1 22.67,0 20.44,11.53 42.6,25.4 54.95,34.5 103.83,104.03 149.88,149.97 6.07,-15.48 20.64,-21.25 38.76,-21.25 38.05,0 91.38,25.5 113.85,40.99 82.37,56.67 552.13,530.58 949.64,935.78 -117.9,626.72 -600.82,1124.11 -1219.74,1263.26z"/>
  <polygon class="fil0" points="2441.41,1661.8 2083.98,1782.43 1756.8,1593.49 2083.98,1404.56 2441.41,1525.18 2480.07,1410.32 2223.73,1323.9 2373.3,1237.58 2312.68,1132.64 2163.22,1218.96 2216.45,953.72 2097.74,929.93 2023.46,1299.71 1696.18,1488.55 1696.18,1110.78 1979.34,861.53 1899.29,770.65 1696.18,949.37 1696.18,776.72 1575.05,776.72 1575.05,949.37 1372.05,770.65 1292,861.53 1575.05,1110.78 1575.05,1488.55 1247.87,1299.71 1173.59,929.93 1054.79,953.72 1108.12,1218.96 958.55,1132.64 898.03,1237.58 1047.5,1323.9 791.17,1410.32 829.93,1525.18 1187.26,1404.56 1514.53,1593.49 1187.26,1782.43 829.93,1661.8 791.17,1776.66 1047.5,1863.09 898.03,1949.41 958.55,2054.35 1108.12,1968.03 1054.79,2233.27 1173.59,2257.05 1247.87,1887.37 1575.05,1698.44 1575.05,2076.31 1292,2325.46 1372.05,2416.34 1575.05,2237.62 1575.05,2410.27 1696.18,2410.27 1696.18,2237.62 1899.29,2416.34 1979.34,2325.46 1696.18,2076.31 1696.18,1698.44 2023.46,1887.37 2097.74,2257.05 2216.45,2233.27 2163.22,1968.03 2312.68,2054.35 2373.3,1949.41 2223.73,1863.09 2480.07,1776.66 "/>
 </g>
</svg>
