<?xml version="1.0" encoding="UTF-8"?>
<!DOCTYPE svg PUBLIC "-//W3C//DTD SVG 1.1//EN" "http://www.w3.org/Graphics/SVG/1.1/DTD/svg11.dtd">
<!-- Creator: CorelDRAW (Evaluation Version) -->
<svg xmlns="http://www.w3.org/2000/svg" xml:space="preserve" width="32px" height="32px" version="1.1" style="shape-rendering:geometricPrecision; text-rendering:geometricPrecision; image-rendering:optimizeQuality; fill-rule:evenodd; clip-rule:evenodd"
viewBox="0 0 32 32"
 xmlns:xlink="http://www.w3.org/1999/xlink"
 xmlns:xodm="http://www.corel.com/coreldraw/odm/2003">
 <defs>
  <style type="text/css">
   <![CDATA[
    .fil2 {fill:#2E5C6E;fill-rule:nonzero}
    .fil1 {fill:#3A738A;fill-rule:nonzero}
    .fil0 {fill:white;fill-rule:nonzero}
   ]]>
  </style>
 </defs>
 <g id="Layer_x0020_1">
  <metadata id="CorelCorpID_0Corel-Layer"/>
  <polygon class="fil0" points="54.81,10.43 53,11.04 51.34,10.08 53,9.12 54.81,9.73 55.01,9.15 53.71,8.71 54.47,8.28 54.16,7.75 53.4,8.18 53.67,6.84 53.07,6.72 52.69,8.59 51.04,9.55 51.04,7.64 52.47,6.37 52.07,5.91 51.04,6.82 51.04,5.94 50.42,5.94 50.42,6.82 49.4,5.91 48.99,6.37 50.42,7.64 50.42,9.55 48.77,8.59 48.39,6.72 47.79,6.84 48.06,8.18 47.3,7.75 47,8.28 47.75,8.71 46.45,9.15 46.65,9.73 48.46,9.12 50.12,10.08 48.46,11.04 46.65,10.43 46.45,11.01 47.75,11.44 47,11.88 47.3,12.41 48.06,11.98 47.79,13.32 48.39,13.44 48.77,11.57 50.42,10.61 50.42,12.52 48.99,13.79 49.4,14.25 50.42,13.34 50.42,14.21 51.04,14.21 51.04,13.34 52.07,14.25 52.47,13.79 51.04,12.52 51.04,10.61 52.69,11.57 53.07,13.44 53.67,13.32 53.4,11.98 54.16,12.41 54.47,11.88 53.71,11.44 55.01,11.01 "/>
  <path class="fil1" d="M15.92 -0.01c-8.83,0 -15.99,7.16 -15.99,16 0,8.83 7.16,15.99 15.99,15.99 8.84,0 16,-7.16 16,-15.99 0,-8.84 -7.16,-16 -16,-16z"/>
  <path class="fil2" d="M22.31 30.66c-5.05,-5.04 -9.85,-9.92 -10.23,-10.38 -0.51,-0.6 -0.74,-1.19 -1.33,-1.78 -0.19,-0.19 -0.41,-0.37 -0.58,-0.58 -0.41,-0.47 -0.48,-0.96 -0.79,-1.42 -0.16,-0.23 -0.43,-0.41 -0.61,-0.61 -0.14,-0.15 -0.32,-0.28 -0.43,-0.46 -0.35,-0.52 -0.08,-0.97 -0.26,-1.4 -0.09,-0.23 -0.45,-0.42 -0.61,-0.61 -0.65,-0.8 -0.66,-1.6 0.1,-2.3 1.76,-1.64 5.12,-1.77 7.36,-1.85 0.51,-0.02 1.04,-0.03 1.58,-0.03 2.43,0 5.12,0.25 7.13,1.43 0.92,0.54 4.48,4.03 8.1,7.69 -0.82,5.53 -4.47,10.13 -9.43,12.3z"/>
  <path class="fil0" d="M23.18 12.94c-1.45,-0.99 -4.28,-1.51 -7.09,-1.51 -2.9,0 -5.84,0.55 -7.24,1.62 -0.51,-0.27 -0.78,-0.53 -0.78,-0.74 0,-0.66 2.77,-1.94 7.85,-1.94 5.09,0 7.86,1.28 7.86,1.94 0,0.18 -0.2,0.4 -0.6,0.63zm-1.35 2.58c-0.31,-0.22 -0.7,-0.41 -1.14,-0.58 0.86,-0.17 1.65,-0.39 2.3,-0.67 0.05,0.08 0.07,0.15 0.07,0.22 0,0.32 -0.44,0.7 -1.23,1.03zm-2.69 2.4c-0.57,-0.2 -1.25,-0.33 -1.97,-0.39 1.57,-0.07 3.08,-0.31 4.3,-0.7 -0.06,0.29 -0.85,0.78 -2.33,1.09zm-0.56 1.86c-0.55,-0.14 -1.19,-0.2 -1.83,-0.2 -0.88,0 -1.75,0.12 -2.41,0.37 -0.93,-0.17 -1.48,-0.44 -1.61,-0.6 0.06,-0.07 0.21,-0.17 0.44,-0.27 0.91,0.16 1.92,0.25 2.92,0.25 1,0 2.01,-0.09 2.92,-0.25 0.23,0.1 0.38,0.2 0.44,0.27 -0.09,0.11 -0.38,0.28 -0.87,0.43zm-1.83 1.74c-1.14,0 -1.92,-0.23 -2.24,-0.4 0.51,0.07 1.05,0.1 1.58,0.1 0.88,0 1.76,-0.09 2.51,-0.28 0.17,0.06 0.31,0.11 0.4,0.17 -0.3,0.17 -1.09,0.41 -2.25,0.41zm-6.04 -4.69c1.22,0.39 2.74,0.63 4.31,0.7 -0.73,0.06 -1.41,0.19 -1.97,0.39 -1.48,-0.31 -2.27,-0.8 -2.34,-1.09zm9.61 -0.84c-1.13,0.27 -2.56,0.44 -4.23,0.44 -1.67,0 -3.1,-0.17 -4.22,-0.44 0.9,-0.33 2.31,-0.62 4.22,-0.62 1.92,0 3.33,0.29 4.23,0.62zm-4.4 -1.74c-2.48,0 -4.41,-0.3 -5.73,-0.69 1.17,-0.54 3.26,-1.01 5.9,-1.01 2.55,0 4.57,0.43 5.77,0.95 -1.33,0.41 -3.33,0.75 -5.94,0.75zm-6.8 0.24c0,-0.03 0.01,-0.07 0.02,-0.1 0.65,0.24 1.41,0.44 2.24,0.59 -0.39,0.16 -0.74,0.34 -1.02,0.54 -0.8,-0.33 -1.24,-0.71 -1.24,-1.03zm15.78 -2.18c0,-2.01 -4.52,-3.06 -8.98,-3.06 -4.46,0 -8.97,1.05 -8.97,3.06 0,0.63 0.44,1.16 1.18,1.6 -0.08,0.18 -0.13,0.38 -0.13,0.58 0,0.79 0.63,1.43 1.64,1.92 -0.04,0.12 -0.06,0.25 -0.06,0.38 0,0.87 0.89,1.52 2.21,1.95 -0.13,0.18 -0.2,0.39 -0.2,0.61 0,0.72 0.71,1.22 1.71,1.52 -0.02,0.07 -0.03,0.15 -0.03,0.24 0,0.77 0.94,1.23 2.12,1.42 -0.07,0.12 -0.11,0.25 -0.11,0.39 0,0.8 1.1,1.08 2.13,1.08 1.03,0 2.13,-0.28 2.13,-1.08 0,-0.28 -0.14,-0.5 -0.37,-0.66 0.63,-0.26 1.06,-0.63 1.06,-1.15 0,-0.27 -0.12,-0.5 -0.31,-0.7 0.42,-0.28 0.67,-0.63 0.67,-1.06 0,-0.22 -0.07,-0.43 -0.2,-0.61 1.32,-0.43 2.22,-1.08 2.22,-1.95 0,-0.13 -0.03,-0.26 -0.07,-0.38 1.01,-0.49 1.64,-1.13 1.64,-1.92 0,-0.26 -0.07,-0.51 -0.21,-0.74 0.59,-0.41 0.93,-0.89 0.93,-1.44z"/>
 </g>
</svg>
