<?xml version="1.0" encoding="UTF-8"?>
<!DOCTYPE svg PUBLIC "-//W3C//DTD SVG 1.1//EN" "http://www.w3.org/Graphics/SVG/1.1/DTD/svg11.dtd">
<!-- Creator: CorelDRAW (Evaluation Version) -->
<svg xmlns="http://www.w3.org/2000/svg" xml:space="preserve" width="32px" height="32px" version="1.1" style="shape-rendering:geometricPrecision; text-rendering:geometricPrecision; image-rendering:optimizeQuality; fill-rule:evenodd; clip-rule:evenodd"
viewBox="0 0 32 32"
 xmlns:xlink="http://www.w3.org/1999/xlink"
 xmlns:xodm="http://www.corel.com/coreldraw/odm/2003">
 <defs>
  <style type="text/css">
   <![CDATA[
    .fil3 {fill:#B53432;fill-rule:nonzero}
    .fil2 {fill:#D2F2F3;fill-rule:nonzero}
    .fil1 {fill:#E2413E;fill-rule:nonzero}
    .fil0 {fill:white;fill-rule:nonzero}
   ]]>
  </style>
 </defs>
 <g id="Layer_x0020_1">
  <metadata id="CorelCorpID_0Corel-Layer"/>
  <polygon class="fil0" points="54.81,10.43 53,11.04 51.34,10.08 53,9.12 54.81,9.73 55.01,9.15 53.71,8.71 54.47,8.28 54.16,7.75 53.4,8.18 53.67,6.84 53.07,6.72 52.69,8.59 51.04,9.55 51.04,7.64 52.47,6.37 52.07,5.91 51.04,6.82 51.04,5.94 50.42,5.94 50.42,6.82 49.4,5.91 48.99,6.37 50.42,7.64 50.42,9.55 48.77,8.59 48.39,6.72 47.79,6.84 48.06,8.18 47.3,7.75 47,8.28 47.75,8.71 46.45,9.15 46.65,9.73 48.46,9.12 50.12,10.08 48.46,11.04 46.65,10.43 46.45,11.01 47.75,11.44 47,11.88 47.3,12.41 48.06,11.98 47.79,13.32 48.39,13.44 48.77,11.57 50.42,10.61 50.42,12.52 48.99,13.79 49.4,14.25 50.42,13.34 50.42,14.21 51.04,14.21 51.04,13.34 52.07,14.25 52.47,13.79 51.04,12.52 51.04,10.61 52.69,11.57 53.07,13.44 53.67,13.32 53.4,11.98 54.16,12.41 54.47,11.88 53.71,11.44 55.01,11.01 "/>
  <path class="fil1" d="M15.87 0.08c-8.73,0 -15.81,7.08 -15.81,15.81 0,8.74 7.08,15.82 15.81,15.82 8.73,0 15.81,-7.08 15.81,-15.82 0,-8.73 -7.08,-15.81 -15.81,-15.81z"/>
  <path class="fil2" d="M15.82 31.54c-0.01,0 -0.02,0 -0.03,0 0.01,0 0.02,0 0.03,0 0.01,0 0.01,0 0.02,0 -0.01,0 -0.01,0 -0.02,0zm-0.03 0c-0.01,0 -0.01,0 -0.02,0 0.01,0 0.01,0 0.02,0zm0.06 0c0,0 0.01,0 0.02,0 -0.01,0 -0.02,0 -0.02,0zm-0.09 0c0,0 -0.01,0 -0.01,0 0,0 0.01,0 0.01,0zm0.12 0c0,0 0.01,0 0.01,0 0,0 -0.01,0 -0.01,0zm-0.14 0c-0.01,0 -0.02,0 -0.02,0 0.01,0 0.01,0 0.02,0zm0.16 0c0.01,0 0.01,0 0.02,0 -0.01,0 -0.01,0 -0.02,0zm0.03 0c0,0 0.01,0 0.01,0 0,0 -0.01,0 -0.01,0zm-0.23 0c0,0 0,0 0,0 0,0 0,0 0,0zm0.25 0c0.01,0 0.01,0 0.02,0 -0.01,0 -0.01,0 -0.02,0zm-0.27 0c0,0 0,0 0,0 0,0 0,0 0,0zm0.3 0c0,0 0.01,0 0.01,0 0,0 -0.01,0 -0.01,0zm0.02 0c0.01,0 0.01,0 0.02,0 -0.01,0 -0.01,0 -0.02,0zm0.03 0c0,0 0.01,0 0.01,0 0,0 -0.01,0 -0.01,0zm0.02 0c0.01,0 0.01,0 0.01,0 0,0 0,0 -0.01,0zm0.03 0c0,0 0.01,0 0.01,0 0,0 -0.01,0 -0.01,0zm0.02 0c0.01,0 0.01,0 0.01,0 0,0 0,0 -0.01,0zm0.03 0c0,0 0,0 0.01,0 -0.01,0 -0.01,0 -0.01,0zm0.02 0c0.01,0 0.01,0 0.01,0 0,0 -0.01,0 -0.01,0zm0.03 0c0,0 0.01,0 0.01,0 0,0 -0.01,0 -0.01,0zm0.02 0c0,0 0.01,0 0.01,0 0,0 -0.01,0 -0.01,0zm0.04 0c0,0 0.01,0 0.01,0 0,0 -0.01,0 -0.01,0zm0.02 -0.01c0.01,0 0.01,0 0.01,0 0,0 0,0 -0.01,0zm0.03 0c0,0 0,0 0.01,0 -0.01,0 -0.01,0 -0.01,0zm0.02 0c0.01,0 0.01,0 0.01,0 0,0 0,0 -0.01,0zm0.03 0c0,0 0,0 0.01,0 -0.01,0 -0.01,0 -0.01,0zm0.02 0c0,0 0.01,0 0.01,0 0,0 -0.01,0 -0.01,0zm0.03 0c0,0 0,0 0.01,0 -0.01,0 -0.01,0 -0.01,0zm0.02 0c0,0 0.01,0 0.01,0 0,0 -0.01,0 -0.01,0zm0.03 0c0,0 0,0 0.01,0 -0.01,0 -0.01,0 -0.01,0zm0.02 0c0,0 0.01,0 0.01,0 0,0 -0.01,0 -0.01,0zm0.02 0c0.01,0 0.01,0 0.01,0 0,0 0,0 -0.01,0zm0.03 0c0,0 0,0 0.01,0 -0.01,0 -0.01,0 -0.01,0zm0.02 0c0.01,0 0.01,-0.01 0.01,-0.01 0,0 0,0.01 -0.01,0.01zm0.03 -0.01c0,0 0,0 0,0 0,0 0,0 0,0zm0.02 0c0,0 0,0 0.01,0 -0.01,0 -0.01,0 -0.01,0zm0.12 0l0 0c0,0 0,0 0,0zm0.02 0c0,0 0.01,0 0.01,0 0,0 -0.01,0 -0.01,0zm0.03 -0.01c0,0 0,0 0,0 0,0 0,0 0,0zm0.02 0c0,0 0,0 0,0 0,0 0,0 0,0zm0.02 0c0.01,0 0.01,0 0.01,0 0,0 0,0 -0.01,0zm0.03 0c0,0 0,0 0,0 0,0 0,0 0,0zm0.02 0c0,0 0,0 0.01,0 -0.01,0 -0.01,0 -0.01,0zm0.03 0c0,0 0,0 0,0 0,0 0,0 0,0zm0.02 0c0,0 0,0 0,0 0,0 0,0 0,0zm0.03 -0.01l0 0 0 0z"/>
  <path class="fil3" d="M15.82 31.54c-0.01,0 -0.02,0 -0.03,0 0,0 0,0 0,0 -0.01,0 -0.01,0 -0.02,0 0,0 -0.01,0 -0.01,0 0,0 -0.01,0 -0.01,0 -0.01,0 -0.01,0 -0.01,0 -0.01,0 -0.01,0 -0.02,0 -0.01,0 -0.01,0 -0.02,0 0,0 0,0 0,0 -0.01,0 -0.01,0 -0.02,0 0,0 0,0 0,0 -1.62,-0.01 -3.18,-0.27 -4.64,-0.74 -3,-3 -5.59,-5.59 -5.84,-5.83 -0.27,-0.27 -0.66,-0.56 -0.87,-0.87 -0.44,-0.68 -0.12,-0.85 0.38,-1.22 1.85,-1.38 3.42,-3.03 4.84,-4.85 0.67,-0.85 1.5,-1.78 1.98,-2.74 0.31,-0.64 0.28,-0.32 -0.01,-0.77 -0.2,-0.32 -3.16,-3.13 -3.43,-3.43 -1.2,-1.33 0.5,-2.06 1.78,-2.11 -0.27,-0.29 -0.59,-0.53 -0.84,-0.84 -0.64,-0.78 -0.32,-1.48 0.31,-1.48 0.24,0 0.54,0.11 0.84,0.36 0.63,0.53 1.18,1.18 1.75,1.75 1.16,1.16 2.28,2.41 3.5,3.5 -0.27,-2.06 -2.33,-3.44 -3.7,-4.86 -0.85,-0.86 -1.58,-2.33 0.11,-2.74 0.16,-0.04 0.32,-0.06 0.46,-0.06 0.84,0 1.45,0.59 2.04,1.17 0.57,0.57 1.13,1.13 1.7,1.7 -0.16,-0.71 -0.04,-0.96 0.22,-0.96 0.51,0 1.56,1.04 1.87,1.36 0.22,0.21 0.92,1.01 1.04,1.03 0,0 0.01,0 0.01,0 0.27,0 1.44,-1.06 1.98,-1.07 0.02,0 0.04,0 0.06,0 0.56,0 0.97,0.27 1.39,0.63 1.91,1.65 5.65,5.4 8.94,8.77 -0.72,7.66 -6.92,13.73 -14.63,14.26l0 0c-0.01,0 -0.02,0 -0.03,0.01 0,0 0,0 0,0 -0.01,0 -0.01,0 -0.02,0 0,0 0,0 0,0 -0.01,0 -0.02,0 -0.02,0 -0.01,0 -0.01,0 -0.01,0 0,0 -0.01,0 -0.02,0 0,0 0,0 0,0 -0.01,0 -0.01,0 -0.02,0 0,0 0,0 -0.01,0 0,0 -0.01,0 -0.02,0 0,0 0,0 0,0 -0.01,0 -0.01,0 -0.02,0 0,0 0,0 0,0 -0.01,0 -0.02,0.01 -0.02,0.01 0,0 -0.01,0 -0.01,0 0,0 -0.01,0 -0.02,0l0 0c-0.04,0 -0.08,0 -0.11,0 -0.01,0 -0.01,0 -0.01,0 0,0 -0.01,0 -0.02,0 0,0 0,0 0,0 -0.01,0 -0.01,0 -0.02,0 0,0 0,0.01 -0.01,0.01 0,0 -0.01,0 -0.01,0 -0.01,0 -0.01,0 -0.01,0 -0.01,0 -0.01,0 -0.02,0 0,0 0,0 -0.01,0 0,0 -0.01,0 -0.01,0 0,0 -0.01,0 -0.01,0 0,0 -0.01,0 -0.01,0 -0.01,0 -0.01,0 -0.01,0 -0.01,0 -0.01,0 -0.02,0 0,0 -0.01,0 -0.01,0 0,0 -0.01,0 -0.01,0 -0.01,0 -0.01,0 -0.01,0 -0.01,0 -0.01,0 -0.02,0 0,0 -0.01,0 -0.01,0 0,0 -0.01,0 -0.01,0 -0.01,0 -0.01,0 -0.01,0 -0.01,0 -0.01,0 -0.02,0 0,0 0,0 -0.01,0 0,0 -0.01,0 -0.01,0 -0.01,0 -0.01,0 -0.01,0 -0.01,0 -0.01,0 -0.02,0 0,0 0,0 -0.01,0 0,0.01 -0.01,0.01 -0.01,0.01 0,0 -0.01,0 -0.01,0 -0.01,0 -0.02,0 -0.03,0 0,0 -0.01,0 -0.01,0 0,0 -0.01,0 -0.01,0 0,0 -0.01,0 -0.01,0 -0.01,0 -0.01,0 -0.02,0 0,0 0,0 -0.01,0 0,0 -0.01,0 -0.01,0 -0.01,0 -0.01,0 -0.01,0 -0.01,0 -0.01,0 -0.02,0 0,0 0,0 -0.01,0 0,0 -0.01,0 -0.01,0 0,0 -0.01,0 -0.01,0 -0.01,0 -0.01,0 -0.02,0 0,0 0,0 -0.01,0 0,0 -0.01,0 -0.01,0 0,0 -0.01,0 -0.01,0 -0.01,0 -0.01,0 -0.01,0 -0.01,0 -0.01,0 -0.02,0 0,0 -0.01,0 -0.01,0 0,0 -0.01,0 -0.01,0 -0.01,0 -0.01,0 -0.01,0 -0.01,0 -0.01,0 -0.02,0 0,0 -0.01,0 -0.01,0 0,0 -0.01,0 -0.01,0 -0.01,0 -0.01,0 -0.01,0 -0.01,0 -0.01,0 -0.02,0 0,0 -0.01,0 -0.01,0 0,0 -0.01,0 -0.01,0 -0.01,0 -0.01,0 -0.01,0 -0.01,0 -0.02,0 -0.02,0 0,0 -0.01,0 -0.01,0 -0.01,0 -0.01,0 -0.02,0z"/>
  <path class="fil0" d="M6 23.15c0.99,-0.77 2.52,-2.19 4.4,-4.61 0.12,0.42 0.35,0.87 0.82,0.87 0.42,0 0.56,-0.3 0.67,-0.53 0.06,-0.13 0.11,-0.25 0.19,-0.27 0.06,-0.02 0.15,0 0.26,0.06 0.28,0.15 0.22,0.66 0.17,1.15 -0.06,0.6 -0.14,1.27 0.44,1.34 0.58,0.08 0.96,-0.75 1.3,-1.48 0.16,-0.36 0.36,-0.78 0.48,-0.81 0.01,-0.01 0.02,-0.01 0.04,0.01 0.19,0.13 0.29,0.49 0.39,0.84 0.13,0.48 0.27,0.98 0.66,0.98 0.36,0 0.48,-0.49 0.61,-0.97 0.1,-0.41 0.21,-0.83 0.44,-0.83 0.1,0 0.21,0.13 0.31,0.33 0.1,0.19 0.2,0.45 0.3,0.69 0.24,0.62 0.49,1.26 0.88,1.26 0.03,0 0.07,-0.01 0.1,-0.02 0.44,-0.11 0.43,-0.87 0.42,-1.6 -0.01,-0.42 -0.01,-0.89 0.1,-1 0.01,-0.01 0.02,-0.02 0.04,-0.02 0.2,0 0.34,0.16 0.49,0.33 0.18,0.21 0.39,0.44 0.75,0.37 0.51,-0.1 0.59,-0.85 0.59,-1.21 2.06,2.74 3.73,4.29 4.79,5.12l-19.64 0zm21.25 0.05c-0.03,-0.02 -3.35,-1.74 -7.86,-8.83 -0.11,-0.17 -0.32,-0.24 -0.52,-0.18l-1.53 0.55 -1.57 -1.07c-0.16,-0.11 -0.36,-0.1 -0.51,0.02l-1.31 1.03 -1.16 -0.51c-0.2,-0.09 -0.43,-0.02 -0.54,0.16 -4.52,7.09 -7.83,8.81 -7.87,8.83 -0.18,0.09 -0.28,0.29 -0.23,0.49 0.05,0.19 0.22,0.33 0.43,0.33l22.48 0c0.2,0 0.37,-0.14 0.42,-0.33 0.05,-0.2 -0.05,-0.4 -0.23,-0.49z"/>
  <path class="fil0" d="M8.75 11.03c2.09,-0.22 3.81,0.06 5.2,1.83 0,0 -0.87,-3.78 -3.84,-3.78 -0.62,0 -1.44,0.09 -1.97,0.45 -0.82,0.57 -0.42,1.6 0.61,1.5z"/>
  <path class="fil0" d="M13.91 8.97c0.9,1.06 1.69,2.46 1.66,3.89 0,0 0.19,-8.84 -3.71,-8.09 -0.86,0.16 -1.24,0.84 -0.84,1.63 0.56,1.12 2.07,1.61 2.89,2.57z"/>
  <path class="fil0" d="M19.24 10.74c0.95,-0.44 2.26,-0.28 3.08,-0.93 0.58,-0.45 0.53,-1.1 -0.06,-1.53 -2.68,-1.93 -5.64,4.81 -5.64,4.82 0.48,-1.1 1.56,-1.88 2.62,-2.36z"/>
  <path class="fil0" d="M20.77 12.28c-1.48,-0.13 -2.19,1.31 -2.19,1.31 1.16,-0.36 2.26,-0.28 3.25,0.42 0.29,0.21 0.54,0.54 0.85,0.23 0.25,-0.24 0.13,-0.77 -0.01,-1.01 -0.38,-0.61 -1.22,-0.89 -1.9,-0.95z"/>
  <path class="fil0" d="M16.8 8.15c0.27,-0.06 0.4,-0.46 0.3,-0.9 -0.1,-0.44 -0.4,-0.75 -0.66,-0.69 -0.27,0.06 -0.4,0.47 -0.3,0.91 0.09,0.43 0.39,0.74 0.66,0.68z"/>
  <path class="fil0" d="M9.38 8.05c0.39,0 0.72,-0.31 0.72,-0.69 0,-0.39 -0.33,-0.7 -0.72,-0.7 -0.4,0 -0.72,0.31 -0.72,0.7 0,0.38 0.32,0.69 0.72,0.69z"/>
 </g>
</svg>
